<svg  viewBox="0 0 40 32" fill="none" xmlns="http://www.w3.org/2000/svg">
<path fill-rule="evenodd" clip-rule="evenodd" d="M1.07288e-06 4C1.19209e-06 1.79086 1.79086 0 4 0L22 8.34465e-07C24.2091 8.34465e-07 26 1.79086 26 4L26 8C26 9.10457 25.1046 10 24 10C22.8954 10 22 9.10457 22 8L22 4L4 4L4 28H22V24C22 22.8954 22.8954 22 24 22C25.1046 22 26 22.8954 26 24V28C26 30.2091 24.2091 32 22 32H4C1.79086 32 0 30.2091 0 28L1.07288e-06 4ZM30.5858 8.58579C31.3668 7.80474 32.6332 7.80474 33.4142 8.58579L39.4142 14.5858C40.1953 15.3668 40.1953 16.6332 39.4142 17.4142L33.4142 23.4142C32.6332 24.1953 31.3668 24.1953 30.5858 23.4142C29.8047 22.6332 29.8047 21.3668 30.5858 20.5858L33.1716 18H14C12.8954 18 12 17.1046 12 16C12 14.8954 12.8954 14 14 14L33.1716 14L30.5858 11.4142C29.8047 10.6332 29.8047 9.36683 30.5858 8.58579Z" fill="#999999"/>
</svg>
